<mxfile host="app.diagrams.net" modified="2023-07-13T07:54:38.987Z" agent="Mozilla/5.0 (Macintosh; Intel Mac OS X 10_15_7) AppleWebKit/605.1.15 (KHTML, like Gecko) Version/16.5 Safari/605.1.15" etag="z-j5Ri9si1GsA8IKJQEs" version="21.6.2" type="device">
  <diagram name="Page-1" id="Ycbv2p-DaJJ9Hu033cub">
    <mxGraphModel dx="844" dy="647" grid="1" gridSize="10" guides="1" tooltips="1" connect="1" arrows="1" fold="1" page="1" pageScale="1" pageWidth="827" pageHeight="1169" math="0" shadow="0">
      <root>
        <mxCell id="0" />
        <mxCell id="1" parent="0" />
        <mxCell id="7smvNzfBBZ55vuGWK6lO-31" style="edgeStyle=orthogonalEdgeStyle;rounded=0;orthogonalLoop=1;jettySize=auto;html=1;" edge="1" parent="1" source="7smvNzfBBZ55vuGWK6lO-18" target="7smvNzfBBZ55vuGWK6lO-26">
          <mxGeometry relative="1" as="geometry">
            <Array as="points">
              <mxPoint x="140" y="320" />
              <mxPoint x="410" y="320" />
            </Array>
          </mxGeometry>
        </mxCell>
        <mxCell id="7smvNzfBBZ55vuGWK6lO-18" value="&lt;p style=&quot;margin:0px;margin-top:6px;text-align:center;&quot;&gt;&lt;b&gt;BankAccount&lt;/b&gt;&lt;br&gt;&lt;/p&gt;&lt;hr&gt;&lt;p style=&quot;margin:0px;margin-left:8px;&quot;&gt;+&amp;nbsp;&lt;b style=&quot;font-family: &amp;quot;Helvetica Neue&amp;quot;; font-size: 13px;&quot;&gt;accountNumber&amp;nbsp;&lt;/b&gt;&lt;b style=&quot;font-family: &amp;quot;Helvetica Neue&amp;quot;; font-size: 13px;&quot;&gt;alance&lt;/b&gt;: int&lt;/p&gt;&lt;p style=&quot;margin:0px;margin-left:8px;&quot;&gt;+&amp;nbsp;&lt;b style=&quot;font-family: &amp;quot;Helvetica Neue&amp;quot;; font-size: 13px;&quot;&gt;balance&lt;/b&gt;: Double&lt;/p&gt;&lt;p style=&quot;margin:0px;margin-left:8px;&quot;&gt;+&lt;b style=&quot;font-family: &amp;quot;Helvetica Neue&amp;quot;; font-size: 13px;&quot;&gt;&amp;nbsp;transactionHistory: &lt;/b&gt;&lt;span style=&quot;font-family: &amp;quot;Helvetica Neue&amp;quot;; font-size: 13px;&quot;&gt;list&amp;lt;string&amp;gt;&lt;/span&gt;&lt;/p&gt;&lt;p style=&quot;margin:0px;margin-left:8px;&quot;&gt;&lt;font size=&quot;2&quot; face=&quot;Helvetica Neue&quot;&gt;+ &lt;b&gt;deposite&lt;/b&gt;: double&lt;/font&gt;&lt;/p&gt;&lt;p style=&quot;margin:0px;margin-left:8px;&quot;&gt;&lt;font size=&quot;2&quot; face=&quot;Helvetica Neue&quot;&gt;+&lt;b&gt;withdraw&lt;/b&gt;: double&lt;/font&gt;&lt;/p&gt;" style="align=left;overflow=fill;html=1;dropTarget=0;whiteSpace=wrap;" vertex="1" parent="1">
          <mxGeometry x="20" y="390" width="240" height="180" as="geometry" />
        </mxCell>
        <mxCell id="7smvNzfBBZ55vuGWK6lO-19" value="" style="shape=component;jettyWidth=8;jettyHeight=4;" vertex="1" parent="7smvNzfBBZ55vuGWK6lO-18">
          <mxGeometry x="1" width="20" height="20" relative="1" as="geometry">
            <mxPoint x="-24" y="4" as="offset" />
          </mxGeometry>
        </mxCell>
        <mxCell id="7smvNzfBBZ55vuGWK6lO-32" style="edgeStyle=orthogonalEdgeStyle;rounded=0;orthogonalLoop=1;jettySize=auto;html=1;" edge="1" parent="1" source="7smvNzfBBZ55vuGWK6lO-20" target="7smvNzfBBZ55vuGWK6lO-26">
          <mxGeometry relative="1" as="geometry">
            <Array as="points">
              <mxPoint x="689" y="320" />
              <mxPoint x="410" y="320" />
            </Array>
          </mxGeometry>
        </mxCell>
        <mxCell id="7smvNzfBBZ55vuGWK6lO-20" value="&lt;p style=&quot;margin:0px;margin-top:6px;text-align:center;&quot;&gt;&lt;b&gt;Customer&lt;/b&gt;&lt;/p&gt;&lt;hr&gt;&lt;p style=&quot;margin:0px;margin-left:8px;&quot;&gt;+&amp;nbsp;&lt;b style=&quot;font-family: &amp;quot;Helvetica Neue&amp;quot;; font-size: 13px;&quot;&gt;firstName&lt;/b&gt;: string&lt;/p&gt;&lt;p style=&quot;margin:0px;margin-left:8px;&quot;&gt;+&amp;nbsp;&lt;b style=&quot;font-family: &amp;quot;Helvetica Neue&amp;quot;; font-size: 13px;&quot;&gt;lastName&lt;/b&gt;: string&lt;/p&gt;&lt;p style=&quot;margin:0px;margin-left:8px;&quot;&gt;+&lt;b style=&quot;font-family: &amp;quot;Helvetica Neue&amp;quot;; font-size: 13px;&quot;&gt;&amp;nbsp;address&lt;/b&gt;: string&lt;/p&gt;&lt;p style=&quot;margin:0px;margin-left:8px;&quot;&gt;+&lt;b style=&quot;font-family: &amp;quot;Helvetica Neue&amp;quot;; font-size: 13px;&quot;&gt;&amp;nbsp;postalCode: &lt;/b&gt;&lt;span style=&quot;font-family: &amp;quot;Helvetica Neue&amp;quot;; font-size: 13px;&quot;&gt;double&lt;/span&gt;&lt;/p&gt;&lt;p style=&quot;margin:0px;margin-left:8px;&quot;&gt;+&lt;b style=&quot;font-family: &amp;quot;Helvetica Neue&amp;quot;; font-size: 13px;&quot;&gt;&amp;nbsp;city: &lt;/b&gt;&lt;span style=&quot;font-family: &amp;quot;Helvetica Neue&amp;quot;; font-size: 13px;&quot;&gt;string&lt;/span&gt;&lt;/p&gt;&lt;p style=&quot;margin:0px;margin-left:8px;&quot;&gt;&lt;font size=&quot;2&quot; face=&quot;Helvetica Neue&quot;&gt;+&lt;/font&gt;&lt;b&gt;updateInfo&lt;/b&gt;: string&lt;/p&gt;" style="align=left;overflow=fill;html=1;dropTarget=0;whiteSpace=wrap;" vertex="1" parent="1">
          <mxGeometry x="571.5" y="390" width="235" height="180" as="geometry" />
        </mxCell>
        <mxCell id="7smvNzfBBZ55vuGWK6lO-21" value="" style="shape=component;jettyWidth=8;jettyHeight=4;" vertex="1" parent="7smvNzfBBZ55vuGWK6lO-20">
          <mxGeometry x="1" width="20" height="20" relative="1" as="geometry">
            <mxPoint x="-24" y="4" as="offset" />
          </mxGeometry>
        </mxCell>
        <mxCell id="7smvNzfBBZ55vuGWK6lO-37" style="edgeStyle=orthogonalEdgeStyle;rounded=0;orthogonalLoop=1;jettySize=auto;html=1;entryX=0.5;entryY=1;entryDx=0;entryDy=0;" edge="1" parent="1" source="7smvNzfBBZ55vuGWK6lO-22" target="7smvNzfBBZ55vuGWK6lO-20">
          <mxGeometry relative="1" as="geometry" />
        </mxCell>
        <mxCell id="7smvNzfBBZ55vuGWK6lO-22" value="&lt;p style=&quot;margin:0px;margin-top:4px;text-align:center;text-decoration:underline;&quot;&gt;&lt;b&gt;Methode Customer&lt;/b&gt;&lt;/p&gt;&lt;hr&gt;&lt;p style=&quot;margin:0px;margin-left:8px;&quot;&gt;Customer = getFullName&lt;/p&gt;&lt;p style=&quot;margin:0px;margin-left:8px;&quot;&gt;Maj des infos clients = updateInfo&lt;/p&gt;&lt;p style=&quot;margin:0px;margin-left:8px;&quot;&gt;Adresse = getAdress&lt;/p&gt;&lt;p style=&quot;margin:0px;margin-left:8px;&quot;&gt;PostalCode =&amp;nbsp;getPostalCode&lt;/p&gt;&lt;p style=&quot;margin:0px;margin-left:8px;&quot;&gt;city = getCity&lt;/p&gt;" style="verticalAlign=top;align=left;overflow=fill;fontSize=12;fontFamily=Helvetica;html=1;whiteSpace=wrap;" vertex="1" parent="1">
          <mxGeometry x="556" y="690" width="265" height="170" as="geometry" />
        </mxCell>
        <mxCell id="7smvNzfBBZ55vuGWK6lO-35" style="edgeStyle=orthogonalEdgeStyle;rounded=0;orthogonalLoop=1;jettySize=auto;html=1;entryX=0.5;entryY=1;entryDx=0;entryDy=0;" edge="1" parent="1" source="7smvNzfBBZ55vuGWK6lO-25" target="7smvNzfBBZ55vuGWK6lO-18">
          <mxGeometry relative="1" as="geometry" />
        </mxCell>
        <mxCell id="7smvNzfBBZ55vuGWK6lO-25" value="&lt;p style=&quot;margin:0px;margin-top:4px;text-align:center;text-decoration:underline;&quot;&gt;&lt;b&gt;Methode BankAccount&lt;/b&gt;&lt;/p&gt;&lt;hr&gt;&lt;p style=&quot;margin:0px;margin-left:8px;&quot;&gt;Account number =&amp;nbsp;getAccountNumber&lt;/p&gt;&lt;p style=&quot;margin:0px;margin-left:8px;&quot;&gt;balance = getBalance&lt;/p&gt;&lt;p style=&quot;margin:0px;margin-left:8px;&quot;&gt;transaction history = getTransactionHistory&lt;/p&gt;&lt;p style=&quot;margin:0px;margin-left:8px;&quot;&gt;deposit&lt;/p&gt;&lt;p style=&quot;margin:0px;margin-left:8px;&quot;&gt;withdraw&lt;/p&gt;&lt;p style=&quot;margin:0px;margin-left:8px;&quot;&gt;&lt;br&gt;&lt;/p&gt;" style="verticalAlign=top;align=left;overflow=fill;fontSize=12;fontFamily=Helvetica;html=1;whiteSpace=wrap;" vertex="1" parent="1">
          <mxGeometry x="6" y="690" width="265" height="170" as="geometry" />
        </mxCell>
        <mxCell id="7smvNzfBBZ55vuGWK6lO-26" value="&lt;p style=&quot;margin:0px;margin-top:6px;text-align:center;&quot;&gt;&lt;b&gt;ATM&lt;/b&gt;&lt;/p&gt;&lt;hr&gt;&lt;p style=&quot;margin:0px;margin-left:8px;&quot;&gt;&lt;br&gt;+ &lt;font size=&quot;2&quot; face=&quot;Helvetica Neue&quot;&gt;&lt;b&gt;bankAccuount: BankAccount&lt;/b&gt;&lt;/font&gt;&lt;/p&gt;&lt;p style=&quot;margin:0px;margin-left:8px;&quot;&gt;+ customer: Customer&amp;nbsp;&lt;/p&gt;&lt;p style=&quot;margin:0px;margin-left:8px;&quot;&gt;&lt;br&gt;&lt;/p&gt;&lt;p style=&quot;margin:0px;margin-left:8px;&quot;&gt;-displayMenu&lt;/p&gt;" style="align=left;overflow=fill;html=1;dropTarget=0;whiteSpace=wrap;" vertex="1" parent="1">
          <mxGeometry x="290" y="140" width="240" height="120" as="geometry" />
        </mxCell>
        <mxCell id="7smvNzfBBZ55vuGWK6lO-27" value="" style="shape=component;jettyWidth=8;jettyHeight=4;" vertex="1" parent="7smvNzfBBZ55vuGWK6lO-26">
          <mxGeometry x="1" width="20" height="20" relative="1" as="geometry">
            <mxPoint x="-24" y="4" as="offset" />
          </mxGeometry>
        </mxCell>
        <mxCell id="7smvNzfBBZ55vuGWK6lO-33" style="edgeStyle=orthogonalEdgeStyle;rounded=0;orthogonalLoop=1;jettySize=auto;html=1;entryX=0.5;entryY=1;entryDx=0;entryDy=0;" edge="1" parent="1" source="7smvNzfBBZ55vuGWK6lO-28" target="7smvNzfBBZ55vuGWK6lO-26">
          <mxGeometry relative="1" as="geometry">
            <Array as="points">
              <mxPoint x="410" y="350" />
              <mxPoint x="410" y="350" />
            </Array>
          </mxGeometry>
        </mxCell>
        <mxCell id="7smvNzfBBZ55vuGWK6lO-28" value="&lt;p style=&quot;margin:0px;margin-top:6px;text-align:center;&quot;&gt;&lt;b&gt;Main&lt;/b&gt;&lt;br&gt;&lt;/p&gt;&lt;hr&gt;&lt;p style=&quot;margin:0px;margin-left:8px;&quot;&gt;+ &lt;font size=&quot;2&quot; face=&quot;Helvetica Neue&quot;&gt;&lt;b&gt;main: string&lt;/b&gt;&lt;/font&gt;&lt;/p&gt;" style="align=left;overflow=fill;html=1;dropTarget=0;whiteSpace=wrap;" vertex="1" parent="1">
          <mxGeometry x="291.5" y="390" width="240" height="120" as="geometry" />
        </mxCell>
        <mxCell id="7smvNzfBBZ55vuGWK6lO-29" value="" style="shape=component;jettyWidth=8;jettyHeight=4;" vertex="1" parent="7smvNzfBBZ55vuGWK6lO-28">
          <mxGeometry x="1" width="20" height="20" relative="1" as="geometry">
            <mxPoint x="-24" y="4" as="offset" />
          </mxGeometry>
        </mxCell>
        <mxCell id="7smvNzfBBZ55vuGWK6lO-36" style="edgeStyle=orthogonalEdgeStyle;rounded=0;orthogonalLoop=1;jettySize=auto;html=1;entryX=0.5;entryY=1;entryDx=0;entryDy=0;" edge="1" parent="1" source="7smvNzfBBZ55vuGWK6lO-30" target="7smvNzfBBZ55vuGWK6lO-28">
          <mxGeometry relative="1" as="geometry" />
        </mxCell>
        <mxCell id="7smvNzfBBZ55vuGWK6lO-30" value="&lt;p style=&quot;margin:0px;margin-top:4px;text-align:center;text-decoration:underline;&quot;&gt;&lt;b&gt;Methode ATM&lt;/b&gt;&lt;/p&gt;&lt;hr&gt;&lt;p style=&quot;margin:0px;margin-left:8px;&quot;&gt;Account number =&amp;nbsp;getAccountNumber&lt;/p&gt;&lt;p style=&quot;margin:0px;margin-left:8px;&quot;&gt;displayMenu()&lt;/p&gt;&lt;p style=&quot;margin:0px;margin-left:8px;&quot;&gt;ProcessChoice(int)&lt;/p&gt;&lt;p style=&quot;margin:0px;margin-left:8px;&quot;&gt;updateCustomerInformation()&lt;/p&gt;&lt;p style=&quot;margin:0px;margin-left:8px;&quot;&gt;getDoubleInput()&lt;/p&gt;&lt;p style=&quot;margin:0px;margin-left:8px;&quot;&gt;getIntInput()&lt;/p&gt;&lt;p style=&quot;margin:0px;margin-left:8px;&quot;&gt;&lt;br&gt;&lt;/p&gt;" style="verticalAlign=top;align=left;overflow=fill;fontSize=12;fontFamily=Helvetica;html=1;whiteSpace=wrap;" vertex="1" parent="1">
          <mxGeometry x="281" y="690" width="265" height="170" as="geometry" />
        </mxCell>
      </root>
    </mxGraphModel>
  </diagram>
</mxfile>
